<svg id="visual" viewBox="0 0 900 600" width="900" height="600" xmlns="http://www.w3.org/2000/svg" xmlns:xlink="http://www.w3.org/1999/xlink" version="1.1"><rect width="900" height="600" fill="#0A86D8"></rect><g><g transform="translate(111 516)"><path d="M0 -80.1L69.4 -40.1L69.4 40.1L0 80.1L-69.4 40.1L-69.4 -40.1Z" fill="#F8931F"></path></g><g transform="translate(455 265)"><path d="M0 -50L43.3 -25L43.3 25L0 50L-43.3 25L-43.3 -25Z" fill="#F8931F"></path></g><g transform="translate(360 508)"><path d="M0 -56L48.5 -28L48.5 28L0 56L-48.5 28L-48.5 -28Z" fill="#F8931F"></path></g><g transform="translate(797 398)"><path d="M0 -54L46.8 -27L46.8 27L0 54L-46.8 27L-46.8 -27Z" fill="#F8931F"></path></g><g transform="translate(241 57)"><path d="M0 -48L41.6 -24L41.6 24L0 48L-41.6 24L-41.6 -24Z" fill="#F8931F"></path></g><g transform="translate(536 556)"><path d="M0 -51L44.2 -25.5L44.2 25.5L0 51L-44.2 25.5L-44.2 -25.5Z" fill="#F8931F"></path></g></g></svg>